<?xml version="1.0" encoding="utf-8"?>
<!-- Generator: Adobe Illustrator 26.0.0, SVG Export Plug-In . SVG Version: 6.00 Build 0)  -->
<svg version="1.1" id="Layer_1" xmlns="http://www.w3.org/2000/svg" xmlns:xlink="http://www.w3.org/1999/xlink" x="0px" y="0px"
	 viewBox="0 0 24 24" style="enable-background:new 0 0 24 24;" xml:space="preserve">
<style type="text/css">
	.st0{fill:none;}
</style>
<path class="st0" d="M0,0h24v24H0V0z"/>
<path d="M17.3,8.3L17.3,8.3c-0.4-0.4-1-0.4-1.4,0L10,14.2l-1.9-1.9c-0.4-0.4-1-0.4-1.4,0l0,0c-0.4,0.4-0.4,1,0,1.4l2.6,2.6
	c0.4,0.4,1,0.4,1.4,0l6.6-6.6C17.7,9.3,17.7,8.7,17.3,8.3z M19,3h-4.2c-0.4-1.2-1.5-2-2.8-2S9.6,1.8,9.2,3H5C4.9,3,4.7,3,4.6,3
	c-0.4,0.1-0.7,0.3-1,0.5C3.4,3.8,3.3,4,3.2,4.2C3.1,4.5,3,4.7,3,5v14c0,0.3,0.1,0.5,0.2,0.8s0.2,0.5,0.4,0.6c0.3,0.3,0.6,0.5,1,0.5
	c0.1,0,0.3,0,0.4,0h14c1.1,0,2-0.9,2-2V5C21,3.9,20.1,3,19,3z M19,19H5V5h14V19z"/>
</svg>
