<svg width="23" height="21" viewBox="0 0 23 21" fill="none" xmlns="http://www.w3.org/2000/svg">
<path d="M21.4355 14.6875V7.57388L20.0954 8.02058V14.6875C19.2621 14.9681 18.6601 15.7563 18.6601 16.683V20.2714C18.6601 20.6415 18.9601 20.9415 19.3301 20.9415H22.2008C22.5709 20.9415 22.8709 20.6415 22.8709 20.2714V16.683C22.8709 15.7563 22.2688 14.9681 21.4355 14.6875Z" fill="#B4111A"/>
<path d="M10.8 10.6954L4.30616 8.53079V13.0945C4.30616 13.2723 4.37678 13.4427 4.50244 13.5683C6.35453 15.4202 8.81686 16.4401 11.4358 16.4401C14.0547 16.4401 16.5168 15.4202 18.3685 13.5682C18.4942 13.4426 18.5647 13.2722 18.5647 13.0945V8.53079L12.0711 10.6954C11.6272 10.8432 11.1804 10.8221 10.8 10.6954Z" fill="#B4111A"/>
<path d="M11.4354 9.45841C11.507 9.45841 11.5786 9.44693 11.6473 9.42401L22.4127 5.83556C22.6863 5.74434 22.8709 5.4883 22.8709 5.19991C22.8709 4.91152 22.6864 4.65547 22.4127 4.56426L11.6473 0.975807C11.5098 0.930021 11.3611 0.930021 11.2236 0.975807L0.458177 4.56426C0.184531 4.65543 0 4.91148 0 5.19991C0 5.48834 0.184531 5.74434 0.458177 5.83556L11.2236 9.42401C11.2923 9.44693 11.3639 9.45841 11.4354 9.45841Z" fill="#B4111A"/>
</svg>
