<svg width="20" height="20" viewBox="0 0 20 20" fill="none" xmlns="http://www.w3.org/2000/svg">
<path d="M16.5624 2.50004H14.9999V1.66671C14.9999 1.44569 14.9121 1.23373 14.7558 1.07745C14.5996 0.921171 14.3876 0.833374 14.1666 0.833374C13.9456 0.833374 13.7336 0.921171 13.5773 1.07745C13.421 1.23373 13.3333 1.44569 13.3333 1.66671V2.50004H10.8333V1.66671C10.8333 1.44569 10.7455 1.23373 10.5892 1.07745C10.4329 0.921171 10.2209 0.833374 9.99992 0.833374C9.7789 0.833374 9.56694 0.921171 9.41066 1.07745C9.25438 1.23373 9.16659 1.44569 9.16659 1.66671V2.50004H6.66659V1.66671C6.66659 1.44569 6.57879 1.23373 6.42251 1.07745C6.26623 0.921171 6.05427 0.833374 5.83325 0.833374C5.61224 0.833374 5.40028 0.921171 5.244 1.07745C5.08772 1.23373 4.99992 1.44569 4.99992 1.66671V2.50004H3.43742C2.74702 2.50092 2.08515 2.77557 1.59697 3.26376C1.10878 3.75194 0.834134 4.41381 0.833252 5.10421V7.50004H19.1666V5.10421C19.1657 4.41381 18.8911 3.75194 18.4029 3.26376C17.9147 2.77557 17.2528 2.50092 16.5624 2.50004Z" fill="#B4111A"/>
<path d="M0.833252 16.5626C0.834134 17.253 1.10878 17.9148 1.59697 18.403C2.08515 18.8912 2.74702 19.1659 3.43742 19.1667H16.5624C17.2528 19.1659 17.9147 18.8912 18.4029 18.403C18.8911 17.9148 19.1657 17.253 19.1666 16.5626V9.16675H0.833252V16.5626ZM6.91075 13.2142C7.06703 13.058 7.27895 12.9703 7.49992 12.9703C7.72089 12.9703 7.93281 13.058 8.08909 13.2142L9.16659 14.2909L11.9108 11.5476C12.0679 11.3958 12.2784 11.3118 12.4969 11.3137C12.7154 11.3156 12.9244 11.4032 13.0789 11.5577C13.2334 11.7122 13.3211 11.9212 13.323 12.1397C13.3249 12.3582 13.2409 12.5687 13.0891 12.7259L9.75575 16.0592C9.59948 16.2155 9.38756 16.3032 9.16659 16.3032C8.94562 16.3032 8.73369 16.2155 8.57742 16.0592L6.91075 14.3926C6.75453 14.2363 6.66676 14.0244 6.66676 13.8034C6.66676 13.5824 6.75453 13.3705 6.91075 13.2142Z" fill="#B4111A"/>
</svg>
