<svg width="92" height="86" viewBox="0 0 92 86" fill="none" xmlns="http://www.w3.org/2000/svg">
<g clip-path="url(#clip0_13_611)">
<circle cx="4" cy="4" r="4" fill="#B4111A"/>
<circle cx="4" cy="17" r="4" fill="#B4111A"/>
<circle cx="4" cy="30" r="4" fill="#B4111A"/>
<circle cx="4" cy="43" r="4" fill="#B4111A"/>
<circle cx="4" cy="56" r="4" fill="#B4111A"/>
<circle cx="4" cy="69" r="4" fill="#B4111A"/>
<circle cx="4" cy="82" r="4" fill="#B4111A"/>
<circle cx="18" cy="4" r="4" fill="#B4111A"/>
<circle cx="18" cy="17" r="4" fill="#B4111A"/>
<circle cx="18" cy="30" r="4" fill="#B4111A"/>
<circle cx="18" cy="43" r="4" fill="#B4111A"/>
<circle cx="18" cy="56" r="4" fill="#B4111A"/>
<circle cx="18" cy="69" r="4" fill="#B4111A"/>
<circle cx="18" cy="82" r="4" fill="#B4111A"/>
<circle cx="32" cy="4" r="4" fill="#B4111A"/>
<circle cx="32" cy="17" r="4" fill="#B4111A"/>
<circle cx="32" cy="30" r="4" fill="#B4111A"/>
<circle cx="32" cy="43" r="4" fill="#B4111A"/>
<circle cx="32" cy="56" r="4" fill="#B4111A"/>
<circle cx="32" cy="69" r="4" fill="#B4111A"/>
<circle cx="32" cy="82" r="4" fill="#B4111A"/>
<circle cx="46" cy="4" r="4" fill="#B4111A"/>
<circle cx="46" cy="17" r="4" fill="#B4111A"/>
<circle cx="46" cy="30" r="4" fill="#B4111A"/>
<circle cx="46" cy="43" r="4" fill="#B4111A"/>
<circle cx="46" cy="56" r="4" fill="#B4111A"/>
<circle cx="46" cy="69" r="4" fill="#B4111A"/>
<circle cx="46" cy="82" r="4" fill="#B4111A"/>
<circle cx="60" cy="4" r="4" fill="#B4111A"/>
<circle cx="60" cy="17" r="4" fill="#B4111A"/>
<circle cx="60" cy="30" r="4" fill="#B4111A"/>
<circle cx="60" cy="43" r="4" fill="#B4111A"/>
<circle cx="60" cy="56" r="4" fill="#B4111A"/>
<circle cx="60" cy="69" r="4" fill="#B4111A"/>
<circle cx="60" cy="82" r="4" fill="#B4111A"/>
<circle cx="74" cy="4" r="4" fill="#B4111A"/>
<circle cx="74" cy="17" r="4" fill="#B4111A"/>
<circle cx="74" cy="30" r="4" fill="#B4111A"/>
<circle cx="74" cy="43" r="4" fill="#B4111A"/>
<circle cx="74" cy="56" r="4" fill="#B4111A"/>
<circle cx="74" cy="69" r="4" fill="#B4111A"/>
<circle cx="74" cy="82" r="4" fill="#B4111A"/>
<circle cx="88" cy="4" r="4" fill="#B4111A"/>
<circle cx="88" cy="17" r="4" fill="#B4111A"/>
<circle cx="88" cy="30" r="4" fill="#B4111A"/>
<circle cx="88" cy="43" r="4" fill="#B4111A"/>
<circle cx="88" cy="56" r="4" fill="#B4111A"/>
<circle cx="88" cy="69" r="4" fill="#B4111A"/>
<circle cx="88" cy="82" r="4" fill="#B4111A"/>
</g>
<defs>
<clipPath id="clip0_13_611">
<rect width="92" height="86" fill="white"/>
</clipPath>
</defs>
</svg>
