<svg width="13" height="14" viewBox="0 0 13 14" fill="none" xmlns="http://www.w3.org/2000/svg">
<g clip-path="url(#clip0_9_54)">
<path d="M0.180009 10.2675C0.254646 10.6108 0.458652 10.8422 0.806954 10.9392C1.1876 11.0462 1.50356 10.9293 1.77225 10.6581C2.81467 9.6132 3.8546 8.56581 4.89453 7.51841C5.41699 6.99596 5.94442 6.47599 6.5216 5.90129L11.2834 10.6631C11.6815 11.0611 12.2487 11.0835 12.6169 10.7327C12.9851 10.382 12.9901 9.78736 12.602 9.39676C10.8057 7.59056 9.00202 5.78685 7.19582 3.99061C6.80273 3.60001 6.25043 3.59006 5.86481 3.97568C4.04866 5.77939 2.23997 7.58807 0.43626 9.40173C0.199912 9.64057 0.105373 9.93414 0.180009 10.2675Z" fill="black"/>
</g>
<defs>
<clipPath id="clip0_9_54">
<rect width="12.7379" height="12.7379" fill="white" transform="matrix(-1 0 0 -1 12.8931 13.7057)"/>
</clipPath>
</defs>
</svg>
