<svg width="35" height="26" viewBox="0 0 35 26" fill="none" xmlns="http://www.w3.org/2000/svg">
<path d="M34.6575 3.14033V13.6315C34.6575 13.6315 32.4122 14.0739 31.9496 14.1321C31.4885 14.1901 30.0395 14.658 28.9893 13.6486C27.3698 12.0964 21.6157 6.37405 21.6157 6.37405C21.6157 6.37405 20.6235 5.40052 19.0305 6.24189C17.5682 7.01262 15.4005 8.14216 14.4951 8.582C12.7835 9.49302 11.3649 8.04762 11.3649 6.94661C11.3649 6.09259 11.8978 5.51296 12.6596 5.08669C14.7241 3.83513 19.0755 1.39264 20.8879 0.429666C21.9896 -0.156255 22.7833 -0.206463 24.2958 1.06768C26.1585 2.63427 27.8162 4.06225 27.8162 4.06225C27.8162 4.06225 28.3569 4.51349 29.2191 4.33175C31.3365 3.88408 34.6575 3.14033 34.6575 3.14033ZM11.7546 20.9166C12.0333 20.2007 11.9402 19.4 11.4059 18.8506C10.9259 18.3592 10.225 18.2297 9.55669 18.3829C9.7436 17.72 9.64039 17.0145 9.15775 16.5167C8.67623 16.0265 7.97668 15.8944 7.30845 16.049C7.49397 15.3871 7.39104 14.6817 6.90812 14.1853C6.15193 13.4096 4.84394 13.4429 3.98467 14.262C3.12995 15.0822 2.58242 16.5681 3.34525 17.4428C4.10683 18.313 4.9819 17.7835 5.64901 17.6315C5.46342 18.2934 4.90736 18.909 5.59216 19.7753C6.27633 20.6421 7.22874 20.1162 7.89654 19.9656C7.71033 20.625 7.17853 21.3024 7.83704 22.1057C8.50148 22.9114 9.58976 22.4821 10.3085 22.2588C10.0311 22.972 9.43739 23.7408 10.2002 24.6023C10.9619 25.47 12.722 25.0686 13.5818 24.2482C14.4392 23.4281 14.5215 22.1282 13.7674 21.3501C13.2467 20.8163 12.4705 20.6921 11.7546 20.9166ZM27.4424 15.4585C21.2273 9.24331 24.1506 12.1679 20.8059 8.81598C20.8059 8.81598 19.8007 7.81525 18.4758 8.39656C17.5458 8.80409 16.3485 9.35953 15.4475 9.78357C14.4575 10.3027 13.745 10.4634 13.4105 10.4612C11.4965 10.4486 9.94374 8.91031 9.94374 6.99829C9.94374 5.75792 10.6022 4.67803 11.5844 4.06505C12.9654 3.10935 16.1443 1.41851 16.1443 1.41851C16.1443 1.41851 15.1759 0.191354 13.0545 0.191354C10.9336 0.191354 6.50261 3.09418 6.50261 3.09418C6.50261 3.09418 5.2456 3.89932 3.45371 3.1741L0 1.97142V13.9763C0 13.9763 0.986185 14.2618 1.8723 14.6237C2.07244 14.053 2.39536 13.5259 2.84332 13.0906C4.3134 11.6904 6.75009 11.6759 8.08759 13.0531C8.49051 13.4717 8.77168 13.9712 8.91517 14.5232C9.4541 14.6896 9.94227 14.9843 10.3346 15.3885C10.7387 15.8043 11.0188 16.3065 11.1635 16.8558C11.7018 17.0223 12.1892 17.3181 12.5829 17.7226C13.0261 18.1797 13.3214 18.7318 13.4593 19.33C14.022 19.494 14.5306 19.7989 14.9401 20.2176C15.7439 21.0433 16.0292 22.1634 15.8564 23.2439L15.8617 23.2464C15.8748 23.2636 16.3597 23.8041 16.6621 24.109C17.2546 24.7021 18.2222 24.7021 18.8166 24.109C19.4071 23.5161 19.4097 22.5504 18.8166 21.9545C18.7953 21.9333 16.6788 19.7194 16.8491 19.5477C17.0182 19.3772 19.7148 22.1831 19.765 22.2345C20.3568 22.8264 21.3238 22.8264 21.9182 22.2345C22.5113 21.6416 22.51 20.6759 21.9182 20.0813C21.8891 20.0537 21.7677 19.9374 21.7227 19.8911C21.7227 19.8911 19.0491 17.5093 19.2526 17.3059C19.4586 17.1011 22.7796 20.2003 22.785 20.2003C23.382 20.7379 24.3015 20.7339 24.8758 20.1593C25.4346 19.6006 25.4466 18.7168 24.9512 18.1212C24.9407 18.0895 22.4202 15.4555 22.6169 15.2573C22.8165 15.0566 25.3105 17.6246 25.3157 17.6299C25.9062 18.2217 26.8745 18.2217 27.4689 17.6299C28.0607 17.038 28.0607 16.0712 27.4689 15.474C27.4609 15.469 27.4503 15.4637 27.4424 15.4585Z" fill="white"/>
</svg>
