<svg width="25" height="25" viewBox="0 0 25 25" fill="none" xmlns="http://www.w3.org/2000/svg">
<g clip-path="url(#clip0_4_857)">
<path d="M17.7734 1.5625C16.7847 1.56365 15.8067 1.76735 14.8997 2.16105C13.9927 2.55474 13.1761 3.13007 12.5 3.85156C11.5093 2.79418 10.2235 2.05905 8.80974 1.74161C7.39594 1.42417 5.91936 1.53907 4.57168 2.0714C3.224 2.60373 2.06748 3.52891 1.25224 4.72682C0.437007 5.92473 0.000713398 7.34006 0 8.78906C0 15.9844 11.6055 23.0469 12.1094 23.3242C12.2309 23.3972 12.37 23.4358 12.5117 23.4358C12.6535 23.4358 12.7926 23.3972 12.9141 23.3242C13.3945 23.0469 25 15.9844 25 8.78906C24.9979 6.87309 24.2359 5.03619 22.8811 3.6814C21.5263 2.3266 19.6894 1.56457 17.7734 1.5625ZM12.5 21.7344C10.4805 20.4453 1.5625 14.4219 1.5625 8.78906C1.5635 7.58592 1.9476 6.41434 2.65912 5.44414C3.37064 4.47393 4.37263 3.7555 5.51986 3.39297C6.66708 3.03044 7.89995 3.04263 9.03978 3.42779C10.1796 3.81295 11.1672 4.55106 11.8594 5.53516C11.9315 5.63752 12.0272 5.72105 12.1383 5.77871C12.2495 5.83636 12.3728 5.86646 12.498 5.86646C12.6233 5.86646 12.7466 5.83636 12.8578 5.77871C12.9689 5.72105 13.0646 5.63752 13.1367 5.53516C13.8283 4.54937 14.8161 3.80967 15.9567 3.42342C17.0973 3.03718 18.3313 3.0245 19.4796 3.38723C20.6278 3.74995 21.6306 4.46921 22.3423 5.44057C23.0541 6.41194 23.4377 7.58486 23.4375 8.78906C23.4375 14.418 14.5195 20.4414 12.5 21.7344Z" fill="#B4111A"/>
</g>
<defs>
<clipPath id="clip0_4_857">
<rect width="25" height="25" fill="white"/>
</clipPath>
</defs>
</svg>
