<?xml version="1.0" encoding="utf-8"?>
<!-- Generator: Adobe Illustrator 26.0.0, SVG Export Plug-In . SVG Version: 6.00 Build 0)  -->
<svg version="1.1" id="Layer_1" xmlns="http://www.w3.org/2000/svg" xmlns:xlink="http://www.w3.org/1999/xlink" x="0px" y="0px"
	 viewBox="0 0 24 24" style="enable-background:new 0 0 24 24;" xml:space="preserve">
<style type="text/css">
	.st0{fill:none;}
</style>
<path class="st0" d="M0,0h24v24H0V0z"/>
<path d="M19,3h-1V2c0-0.6-0.4-1-1-1h0c-0.6,0-1,0.4-1,1v1H8V2c0-0.6-0.4-1-1-1h0C6.4,1,6,1.4,6,2v1H5C3.9,3,3,3.9,3,5l0,14
	c0,1.1,0.9,2,2,2h14c1.1,0,2-0.9,2-2V5C21,3.9,20.1,3,19,3z M18.5,19h-13C5.2,19,5,18.8,5,18.5V9h14v9.5C19,18.8,18.8,19,18.5,19z
	 M19,7H5V5h14V7z M14.5,12L14.5,12c-1.4,0-2.5,1.1-2.5,2.5v0c0,1.4,1.1,2.5,2.5,2.5h0c1.4,0,2.5-1.1,2.5-2.5v0
	C17,13.1,15.9,12,14.5,12z"/>
</svg>
