<svg width="24" height="24" viewBox="0 0 24 24" fill="none" xmlns="http://www.w3.org/2000/svg">
<g clip-path="url(#clip0_237_38)">
<path d="M19.4993 13.5722L11.9993 21.0002L4.49932 13.5722C4.00463 13.0908 3.61497 12.5122 3.35487 11.8728C3.09478 11.2334 2.96989 10.5471 2.98806 9.85711C3.00624 9.16709 3.16709 8.48831 3.46048 7.86351C3.75388 7.23871 4.17346 6.68143 4.69281 6.22676C5.21216 5.77208 5.82003 5.42987 6.47814 5.22166C7.13624 5.01345 7.83033 4.94376 8.51669 5.01698C9.20306 5.0902 9.86682 5.30473 10.4662 5.64708C11.0656 5.98943 11.5876 6.45218 11.9993 7.00618C12.4129 6.4562 12.9355 5.9975 13.5344 5.65878C14.1334 5.32007 14.7958 5.10863 15.4803 5.0377C16.1647 4.96677 16.8564 5.03787 17.5121 5.24657C18.1678 5.45526 18.7734 5.79705 19.2909 6.25054C19.8084 6.70403 20.2268 7.25946 20.5197 7.88207C20.8127 8.50468 20.9741 9.18106 20.9936 9.86889C21.0132 10.5567 20.8906 11.2412 20.6335 11.8794C20.3763 12.5177 19.9902 13.096 19.4993 13.5782" stroke="black" stroke-width="2" stroke-linecap="round" stroke-linejoin="round"/>
</g>
<defs>
<clipPath id="clip0_237_38">
<rect width="24" height="24" fill="white"/>
</clipPath>
</defs>
</svg>
