<svg id="Layer_2" data-name="Layer 2" xmlns="http://www.w3.org/2000/svg" viewBox="0 0 24 24"><defs><style>.cls-1{fill:none;}</style></defs><g id="Group_804" data-name="Group 804"><path id="linkedin" d="M7.3,20.13V7.9H3.24V20.13Zm-2-13.9A2.12,2.12,0,0,0,5.63,2,1.82,1.82,0,0,0,5.3,2,2.12,2.12,0,1,0,5,6.22h.32Zm8.31,13.9V13.3a2.61,2.61,0,0,1,.14-1,2.21,2.21,0,0,1,2.08-1.48c1.47,0,2.06,1.12,2.06,2.76v6.55h4.06v-7c0-3.76-2-5.5-4.68-5.5a4,4,0,0,0-3.66,2v0h0l0,0V7.9H9.52c.05,1.14,0,12.23,0,12.23Z"/><path id="Path_1" data-name="Path 1" class="cls-1" d="M0,0H24V24H0Z"/></g></svg>