<?xml version="1.0" encoding="utf-8"?>
<!-- Generator: Adobe Illustrator 26.0.0, SVG Export Plug-In . SVG Version: 6.00 Build 0)  -->
<svg version="1.1" id="Layer_1" xmlns="http://www.w3.org/2000/svg" xmlns:xlink="http://www.w3.org/1999/xlink" x="0px" y="0px"
	 viewBox="0 0 24 24" style="enable-background:new 0 0 24 24;" xml:space="preserve">
<style type="text/css">
	.st0{fill:none;}
</style>
<path class="st0" d="M0,0h24v24H0V0z"/>
<path d="M12,12.2c-1.1,0-2-0.9-2-2s0.9-2,2-2s2,0.9,2,2S13.1,12.2,12,12.2z M18,10.4c0-3.6-2.6-6.2-6-6.2s-6,2.6-6,6.2
	c0,2.2,1.7,5.1,5.3,8.5c0.4,0.4,1,0.4,1.4,0C16.3,15.4,18,12.6,18,10.4z M12,2.2c4.2,0,8,3.2,8,8.2c0,3.2-2.4,6.9-7.3,11.2
	c-0.4,0.3-1,0.3-1.3,0C6.4,17.3,4,13.5,4,10.4C4,5.4,7.8,2.2,12,2.2z"/>
</svg>
