<svg width="14" height="18" viewBox="0 0 14 18" fill="none" xmlns="http://www.w3.org/2000/svg">
<path d="M13.041 4.30324C12.5457 3.32662 11.8128 2.4902 10.9097 1.87086C10.0066 1.25152 8.96231 0.869146 7.87282 0.758889C7.37997 0.709439 6.8834 0.709439 6.39055 0.758889C5.30109 0.869219 4.25682 1.25158 3.3537 1.87085C2.45059 2.49011 1.71759 3.32641 1.22205 4.30291C0.598592 5.54887 0.357776 6.95146 0.529934 8.33402C0.702091 9.71658 1.27952 11.0173 2.1895 12.0723L6.62689 17.4673C6.68818 17.5418 6.76521 17.6019 6.85246 17.6431C6.93972 17.6843 7.03502 17.7057 7.13152 17.7057C7.22803 17.7057 7.32333 17.6843 7.41058 17.6431C7.49783 17.6019 7.57487 17.5418 7.63615 17.4673L12.0735 12.0723C12.9835 11.0173 13.5609 9.71669 13.7331 8.33419C13.9053 6.95168 13.6644 5.54914 13.041 4.30324ZM7.13152 9.86663C6.61473 9.86663 6.10954 9.71338 5.67984 9.42626C5.25014 9.13915 4.91523 8.73106 4.71746 8.2536C4.51969 7.77615 4.46795 7.25077 4.56877 6.7439C4.66959 6.23704 4.91845 5.77145 5.28388 5.40602C5.64931 5.04059 6.1149 4.79173 6.62176 4.69091C7.12862 4.59009 7.654 4.64184 8.13146 4.8396C8.60892 5.03737 9.017 5.37228 9.30412 5.80198C9.59124 6.23168 9.74448 6.73687 9.74448 7.25367C9.74367 7.94642 9.46812 8.61056 8.97827 9.10041C8.48842 9.59026 7.82427 9.86581 7.13152 9.86663Z" fill="#B4111A"/>
</svg>
