<svg xmlns="http://www.w3.org/2000/svg" width="16" height="16" viewBox="0 0 16 16"><defs><style>.a{fill:none;}.b{fill:#000d19;}</style></defs><path class="a" d="M0,0H16V16H0Z"/><path class="b" d="M8.667,2a6.667,6.667,0,1,0,6.667,6.667A6.669,6.669,0,0,0,8.667,2ZM8,13.953A5.326,5.326,0,0,1,3.333,8.667a5.412,5.412,0,0,1,.14-1.193l3.193,3.193v.667A1.337,1.337,0,0,0,8,12.667Zm4.6-1.693a1.323,1.323,0,0,0-1.267-.927h-.667v-2A.669.669,0,0,0,10,8.667H6V7.333H7.333A.669.669,0,0,0,8,6.667V5.333H9.333A1.337,1.337,0,0,0,10.667,4V3.727A5.321,5.321,0,0,1,12.6,12.26Z" transform="translate(-0.667 -0.667)"/></svg>