<svg width="20" height="14" viewBox="0 0 20 14" fill="none" xmlns="http://www.w3.org/2000/svg">
<path d="M19.1666 12.8334C19.1666 13.0544 19.0788 13.2664 18.9225 13.4226C18.7662 13.5789 18.5543 13.6667 18.3333 13.6667H8.33325C8.11224 13.6667 7.90028 13.5789 7.744 13.4226C7.58772 13.2664 7.49992 13.0544 7.49992 12.8334C7.49992 11.5073 8.0267 10.2355 8.96439 9.29784C9.90207 8.36016 11.1738 7.83337 12.4999 7.83337H14.1666C15.4927 7.83337 16.7644 8.36016 17.7021 9.29784C18.6398 10.2355 19.1666 11.5073 19.1666 12.8334ZM13.3333 0.333374C12.674 0.333374 12.0295 0.52887 11.4814 0.895142C10.9332 1.26141 10.5059 1.78201 10.2537 2.3911C10.0014 3.00018 9.93535 3.67041 10.064 4.31701C10.1926 4.96361 10.5101 5.55756 10.9762 6.02373C11.4424 6.48991 12.0363 6.80737 12.683 6.93599C13.3296 7.06461 13.9998 6.9986 14.6089 6.74631C15.218 6.49401 15.7385 6.06677 16.1048 5.51861C16.4711 4.97044 16.6666 4.32598 16.6666 3.66671C16.6666 2.78265 16.3154 1.93481 15.6903 1.30968C15.0652 0.684563 14.2173 0.333374 13.3333 0.333374ZM5.83325 0.333374C5.17398 0.333374 4.52952 0.52887 3.98135 0.895142C3.43319 1.26141 3.00595 1.78201 2.75365 2.3911C2.50136 3.00018 2.43535 3.67041 2.56397 4.31701C2.69259 4.96361 3.01005 5.55756 3.47623 6.02373C3.9424 6.48991 4.53635 6.80737 5.18295 6.93599C5.82955 7.06461 6.49978 6.9986 7.10886 6.74631C7.71795 6.49401 8.23855 6.06677 8.60482 5.51861C8.97109 4.97044 9.16659 4.32598 9.16659 3.66671C9.16659 2.78265 8.8154 1.93481 8.19028 1.30968C7.56515 0.684563 6.71731 0.333374 5.83325 0.333374ZM5.83325 12.8334C5.83201 11.958 6.00447 11.0912 6.34062 10.283C6.67678 9.47477 7.16995 8.7413 7.79159 8.12504C7.28287 7.93297 6.74369 7.83417 6.19992 7.83337H5.46659C4.23843 7.83558 3.0612 8.32444 2.19276 9.19288C1.32432 10.0613 0.835455 11.2385 0.833252 12.4667V12.8334C0.833252 13.0544 0.921049 13.2664 1.07733 13.4226C1.23361 13.5789 1.44557 13.6667 1.66659 13.6667H5.98325C5.88623 13.3995 5.83551 13.1177 5.83325 12.8334Z" fill="#8F8F8F"/>
</svg>
