<?xml version="1.0" encoding="utf-8"?>
<!-- Generator: Adobe Illustrator 26.0.0, SVG Export Plug-In . SVG Version: 6.00 Build 0)  -->
<svg version="1.1" id="Layer_1" xmlns="http://www.w3.org/2000/svg" xmlns:xlink="http://www.w3.org/1999/xlink" x="0px" y="0px"
	 viewBox="0 0 24 24" style="enable-background:new 0 0 24 24;" xml:space="preserve">
<style type="text/css">
	.st0{fill:none;}
</style>
<path class="st0" d="M0,0h24v24H0V0z"/>
<path d="M11.5,3.3L2.6,8.1c-0.7,0.4-0.7,1.4,0,1.8L5,11.2v5.4c0,0.4,0.2,0.7,0.5,0.9l6,3.3c0.3,0.2,0.7,0.2,1,0l6-3.3
	c0.3-0.2,0.5-0.5,0.5-0.9v-5.4l1.3-0.7c0.3-0.2,0.7,0.1,0.7,0.4V16c0,0.6,0.4,1,1,1h0c0.6,0,1-0.4,1-1V9.6c0-0.4-0.2-0.7-0.5-0.9
	l-10-5.5C12.2,3.1,11.8,3.1,11.5,3.3z M18.8,9L12,12.7L5.2,9L12,5.3L18.8,9z M17,16l-5,2.7L7,16v-3.7l4.5,2.5c0.3,0.2,0.7,0.2,1,0
	l4.5-2.5V16z"/>
</svg>
