<svg width="25" height="25" viewBox="0 0 25 25" fill="none" xmlns="http://www.w3.org/2000/svg">
<path d="M24.5659 22.471L19.7601 17.6663C21.2166 15.76 22.0154 13.4478 22.0157 11.008C22.0157 8.06773 20.8703 5.30325 18.7905 3.2242C16.711 1.14514 13.9463 0 11.0051 0C8.06417 0 5.29912 1.14514 3.21963 3.2242C-1.07321 7.51649 -1.07321 14.5002 3.21963 18.7918C5.29912 20.8712 8.06417 22.0163 11.0051 22.0163C13.4454 22.016 15.7581 21.2174 17.6647 19.7612L22.4705 24.566C22.7595 24.8553 23.139 25 23.5182 25C23.8973 25 24.2768 24.8553 24.5659 24.566C25.1447 23.9876 25.1447 23.0494 24.5659 22.471ZM5.31503 16.6968C2.17771 13.5601 2.17807 8.45619 5.31503 5.31916C6.83486 3.80002 8.85574 2.96305 11.0051 2.96305C13.1547 2.96305 15.1752 3.80002 16.6951 5.31916C18.2149 6.83867 19.052 8.85913 19.052 11.008C19.052 13.1572 18.2149 15.1773 16.6951 16.6968C15.1752 18.2163 13.1547 19.0533 11.0051 19.0533C8.85574 19.0533 6.83486 18.2163 5.31503 16.6968Z" fill="#FDFDFD"/>
</svg>
