<svg width="25" height="26" viewBox="0 0 25 26" fill="none" xmlns="http://www.w3.org/2000/svg">
<path d="M24.5659 22.8848L19.7601 18.0801C21.2166 16.1738 22.0154 13.8617 22.0157 11.4218C22.0157 8.48154 20.8703 5.71707 18.7905 3.63801C16.711 1.55896 13.9463 0.413818 11.0051 0.413818C8.06417 0.413818 5.29912 1.55896 3.21963 3.63801C-1.07321 7.93031 -1.07321 14.914 3.21963 19.2056C5.29912 21.285 8.06417 22.4302 11.0051 22.4302C13.4454 22.4298 15.7581 21.6312 17.6647 20.175L22.4705 24.9798C22.7595 25.2691 23.139 25.4138 23.5182 25.4138C23.8973 25.4138 24.2768 25.2691 24.5659 24.9798C25.1447 24.4014 25.1447 23.4632 24.5659 22.8848ZM5.31503 17.1106C2.17771 13.974 2.17807 8.87001 5.31503 5.73298C6.83486 4.21384 8.85574 3.37687 11.0051 3.37687C13.1547 3.37687 15.1752 4.21384 16.6951 5.73298C18.2149 7.25249 19.052 9.27294 19.052 11.4218C19.052 13.571 18.2149 15.5911 16.6951 17.1106C15.1752 18.6301 13.1547 19.4671 11.0051 19.4671C8.85574 19.4671 6.83486 18.6301 5.31503 17.1106Z" fill="#FDFDFD"/>
</svg>
