<svg xmlns="http://www.w3.org/2000/svg" width="16" height="16" viewBox="0 0 16 16"><defs><style>.a{fill:none;}</style></defs><g transform="translate(0.143)"><rect class="a" width="16" height="16" transform="translate(-0.143)"/></g><g transform="translate(0.811 1.333)"><path d="M8.468,13.933A.33.33,0,0,1,8,13.467l1.8-1.8a.644.644,0,0,0,0-.933h0a.644.644,0,0,0-.933,0l-1.8,1.8a.33.33,0,0,1-.467-.467l1.8-1.8a.644.644,0,0,0,0-.933h0a.644.644,0,0,0-.933,0l-1.8,1.733A.33.33,0,0,1,5.2,10.6L7,8.8a.644.644,0,0,0,0-.933H7a.644.644,0,0,0-.933,0l-1.8,1.8A.33.33,0,1,1,3.8,9.2L6.268,6.733a.644.644,0,0,1,.933,0l.733.733a1.734,1.734,0,0,0,2.267.2A1.663,1.663,0,0,0,10.334,5.2L9.068,3.933l.2-.2a1.289,1.289,0,0,1,1.867,0l2.8,2.8a1.289,1.289,0,0,1,0,1.867Zm6.4-4.533a2.656,2.656,0,0,0,0-3.8l-2.8-2.8a2.656,2.656,0,0,0-3.8,0l-.2.2-.2-.2a2.656,2.656,0,0,0-3.8,0L1.8,5.133A2.652,2.652,0,0,0,1.068,7.6.683.683,0,0,0,2.2,7.933h0a.68.68,0,0,0,.133-.6,1.491,1.491,0,0,1,.333-1.267L5,3.733a1.289,1.289,0,0,1,1.867,0l2.4,2.4a.322.322,0,0,1,0,.467c-.133.133-.267.067-.4-.067l-.8-.8a1.933,1.933,0,0,0-2.8,0L2.8,8.2a1.611,1.611,0,0,0,0,2.333A1.778,1.778,0,0,0,3.734,11a1.778,1.778,0,0,0,.467.933,1.778,1.778,0,0,0,.933.467,1.65,1.65,0,0,0,1.4,1.4A1.778,1.778,0,0,0,7,14.733a1.607,1.607,0,0,0,1.2.467,1.917,1.917,0,0,0,1.2-.467Z" transform="translate(-1.003 -2)"/></g></svg>