<?xml version="1.0" encoding="utf-8"?>
<!-- Generator: Adobe Illustrator 26.0.0, SVG Export Plug-In . SVG Version: 6.00 Build 0)  -->
<svg version="1.1" id="Layer_1" xmlns="http://www.w3.org/2000/svg" xmlns:xlink="http://www.w3.org/1999/xlink" x="0px" y="0px"
	 viewBox="0 0 24 24" style="enable-background:new 0 0 24 24;" xml:space="preserve">
<style type="text/css">
	.st0{fill:none;}
</style>
<path class="st0" d="M0,0h24v24H0V0z"/>
<path class="st0" d="M0,0h24v24H0V0z"/>
<g>
	<g>
		<path d="M7,20c-0.6,0-1-0.4-1-1V7.4L3.7,9.7c-0.4,0.4-1,0.4-1.4,0s-0.4-1,0-1.4l4-4c0.1-0.1,0.2-0.2,0.3-0.2C6.7,4,6.9,4,7,4l0,0
			c0,0,0,0,0,0l0,0c0.1,0,0.3,0,0.4,0.1c0.1,0,0.2,0.1,0.3,0.2l4,4c0.4,0.4,0.4,1,0,1.4s-1,0.4-1.4,0L8,7.4V19C8,19.6,7.6,20,7,20z"
			/>
	</g>
	<g>
		<path d="M17,20C17,20,17,20,17,20L17,20c-0.1,0-0.3,0-0.4-0.1c-0.1,0-0.2-0.1-0.3-0.2l-4-4c-0.4-0.4-0.4-1,0-1.4s1-0.4,1.4,0
			l2.3,2.3V5c0-0.6,0.4-1,1-1s1,0.4,1,1v11.6l2.3-2.3c0.4-0.4,1-0.4,1.4,0s0.4,1,0,1.4l-4,4c-0.1,0.1-0.2,0.2-0.3,0.2
			C17.3,20,17.1,20,17,20L17,20C17,20,17,20,17,20z"/>
	</g>
</g>
</svg>
