<svg width="30" height="26" viewBox="0 0 30 26" fill="none" xmlns="http://www.w3.org/2000/svg">
<path d="M10.3845 11.8462H6.34603C5.86523 11.8462 5.45648 11.678 5.11991 11.3414C4.78352 11.0048 4.61511 10.5962 4.61511 10.1152V9.53859C4.61511 8.26447 5.06592 7.17682 5.96747 6.27527C6.86896 5.37404 7.95679 4.92323 9.23078 4.92323H10.3845C10.697 4.92323 10.9673 4.809 11.1958 4.58072C11.4241 4.35232 11.5383 4.08198 11.5383 3.76947V1.46157C11.5383 1.14912 11.4241 0.878531 11.1958 0.650127C10.9674 0.42204 10.6971 0.307617 10.3845 0.307617H9.23078C7.98066 0.307617 6.788 0.551239 5.65205 1.03779C4.51622 1.52465 3.53378 2.18277 2.70434 3.01221C1.87496 3.84127 1.21703 4.82377 0.730233 5.95973C0.243432 7.09555 0 8.28853 0 9.53853V22.2305C0 23.1926 0.336385 24.0094 1.00947 24.6828C1.68262 25.3557 2.50012 25.6922 3.4616 25.6922H10.385C11.3464 25.6922 12.1637 25.3557 12.8369 24.6828C13.5098 24.0094 13.8464 23.1926 13.8464 22.2305V15.3078C13.8464 14.3459 13.5098 13.529 12.8364 12.8556C12.1635 12.1827 11.346 11.8462 10.3845 11.8462Z" fill="#B4111A"/>
<path d="M28.991 12.8556C28.3181 12.1827 27.5008 11.8462 26.5392 11.8462H22.5007C22.0202 11.8462 21.611 11.678 21.275 11.3414C20.9383 11.0048 20.7702 10.5962 20.7702 10.1152V9.53859C20.7702 8.26447 21.221 7.17682 22.1221 6.27527C23.0233 5.37404 24.1111 4.92323 25.3857 4.92323H26.5392C26.8517 4.92323 27.1223 4.809 27.3505 4.58072C27.5787 4.35232 27.6933 4.08198 27.6933 3.76947V1.46157C27.6933 1.14912 27.5787 0.878531 27.3505 0.650127C27.1223 0.42204 26.8518 0.307617 26.5392 0.307617H25.3857C24.1349 0.307617 22.9425 0.551239 21.8062 1.03779C20.6706 1.52465 19.6885 2.18277 18.859 3.01221C18.0296 3.84127 17.3713 4.82377 16.8847 5.95973C16.398 7.09555 16.1543 8.28853 16.1543 9.53853V22.2305C16.1543 23.1926 16.491 24.0094 17.1639 24.6828C17.8369 25.3557 18.6542 25.6922 19.6158 25.6922H26.5388C27.5004 25.6922 28.3177 25.3557 28.9906 24.6828C29.664 24.0094 30 23.1926 30 22.2305V15.3078C30.0001 14.3459 29.664 13.529 28.991 12.8556Z" fill="#B4111A"/>
</svg>
