<svg xmlns="http://www.w3.org/2000/svg" width="24" height="24" viewBox="0 0 24 24"><defs><style>.a{fill:none;}</style></defs><g transform="translate(0)"><path class="a" d="M0,0H24V24H0Z" transform="translate(0)"/><path d="M6.959,20A12.844,12.844,0,0,0,19.892,7.075c0-.193,0-.391-.008-.584a9.256,9.256,0,0,0,2.267-2.356,9.219,9.219,0,0,1-2.616.717,4.571,4.571,0,0,0,2-2.516,9.045,9.045,0,0,1-2.889,1.1A4.549,4.549,0,0,0,10.9,7.578,12.911,12.911,0,0,1,1.535,2.83,4.553,4.553,0,0,0,2.944,8.9,4.6,4.6,0,0,1,.887,8.333V8.4A4.552,4.552,0,0,0,4.533,12.85a4.435,4.435,0,0,1-1.2.159,4.472,4.472,0,0,1-.851-.079,4.545,4.545,0,0,0,4.247,3.152A9.121,9.121,0,0,1,1.08,18.031,8.751,8.751,0,0,1,0,17.969,12.933,12.933,0,0,0,6.959,20Z" transform="translate(1 1.003)"/></g></svg>