<svg width="35" height="31" viewBox="0 0 35 31" fill="none" xmlns="http://www.w3.org/2000/svg">
<path d="M32.3246 20.7929V10.0656L30.3038 10.7392V20.7929C29.0472 21.216 28.1393 22.4046 28.1393 23.8021V29.2134C28.1393 29.7715 28.5917 30.2239 29.1497 30.2239H33.4788C34.0368 30.2239 34.4892 29.7715 34.4892 29.2134V23.8021C34.4892 22.4046 33.5813 21.216 32.3246 20.7929Z" fill="white"/>
<path d="M16.2864 14.7728L6.49367 11.5086V18.3907C6.49367 18.6587 6.60016 18.9157 6.78965 19.1052C9.5826 21.8978 13.2958 23.4358 17.2451 23.4358C21.1944 23.4358 24.9072 21.8978 27.6996 19.1051C27.8891 18.9156 27.9955 18.6586 27.9955 18.3907V11.5086L18.2031 14.7728C17.5338 14.9957 16.86 14.9639 16.2864 14.7728Z" fill="white"/>
<path d="M17.2446 12.9075C17.3525 12.9075 17.4604 12.8901 17.5641 12.8556L33.7982 7.44423C34.2108 7.30667 34.4892 6.92056 34.4892 6.48567C34.4892 6.05078 34.2109 5.66467 33.7982 5.52711L17.5641 0.115749C17.3567 0.0467034 17.1324 0.0467034 16.9251 0.115749L0.690929 5.52711C0.278271 5.6646 0 6.05072 0 6.48567C0 6.92062 0.278271 7.30667 0.690929 7.44423L16.9251 12.8556C17.0288 12.8901 17.1367 12.9075 17.2446 12.9075Z" fill="white"/>
</svg>
