<svg width="21" height="18" viewBox="0 0 21 18" fill="none" xmlns="http://www.w3.org/2000/svg">
<path d="M19.0477 12.0436V6.00272L17.9097 6.38206V12.0436C17.202 12.2819 16.6907 12.9512 16.6907 13.7381V16.7854C16.6907 17.0996 16.9455 17.3544 17.2597 17.3544H19.6976C20.0118 17.3544 20.2666 17.0996 20.2666 16.7854V13.7381C20.2666 12.9512 19.7553 12.2819 19.0477 12.0436Z" fill="#B4111A"/>
<path d="M10.016 8.6535L4.50149 6.81533V10.6908C4.50149 10.8418 4.56147 10.9865 4.66817 11.0932C6.24096 12.6658 8.33196 13.5319 10.5559 13.5319C12.7799 13.5319 14.8707 12.6658 16.4432 11.0931C16.5499 10.9864 16.6098 10.8417 16.6098 10.6908V6.81533L11.0954 8.65346C10.7185 8.77898 10.339 8.76112 10.016 8.6535Z" fill="#B4111A"/>
<path d="M10.5556 7.60305C10.6164 7.60305 10.6772 7.5933 10.7356 7.57384L19.8775 4.52655C20.1098 4.44909 20.2666 4.23166 20.2666 3.98676C20.2666 3.74186 20.1099 3.52443 19.8775 3.44697L10.7356 0.399675C10.6188 0.360794 10.4925 0.360794 10.3757 0.399675L1.23381 3.44697C1.00143 3.52439 0.844727 3.74182 0.844727 3.98676C0.844727 4.23169 1.00143 4.44909 1.23381 4.52655L10.3757 7.57384C10.4341 7.5933 10.4949 7.60305 10.5556 7.60305Z" fill="#B4111A"/>
</svg>
