<?xml version="1.0" encoding="utf-8"?>
<!-- Generator: Adobe Illustrator 26.0.0, SVG Export Plug-In . SVG Version: 6.00 Build 0)  -->
<svg version="1.1" id="Layer_1" xmlns="http://www.w3.org/2000/svg" xmlns:xlink="http://www.w3.org/1999/xlink" x="0px" y="0px"
	 viewBox="0 0 24 24" style="enable-background:new 0 0 24 24;" xml:space="preserve">
<style type="text/css">
	.st0{fill:none;}
</style>
<path class="st0" d="M0,0h24v24H0V0z"/>
<path d="M15,8v8H5V8H15 M16,6H4C3.5,6,3,6.4,3,7v10c0,0.5,0.5,1,1,1h12c0.5,0,1-0.5,1-1v-3.5l2.3,2.3c0.6,0.6,1.7,0.2,1.7-0.7V8.9
	c0-0.9-1.1-1.3-1.7-0.7L17,10.5V7C17,6.4,16.5,6,16,6z"/>
</svg>
