<svg xmlns="http://www.w3.org/2000/svg" width="24" height="24" viewBox="0 0 24 24"><defs><style>.a{fill:none;}</style></defs><rect class="a" width="24" height="24"/><g transform="translate(2.049 1.667)"><path d="M19.05,4.909A9.816,9.816,0,0,0,12.039,2,9.916,9.916,0,0,0,3.45,16.86L2.05,22,7.3,20.62a9.912,9.912,0,0,0,4.74,1.211h0A9.913,9.913,0,0,0,19.05,4.909Zm-7.011,15.24h0A8.267,8.267,0,0,1,7.839,19l-.3-.18-3.12.82.829-3.04-.2-.311a8.244,8.244,0,1,1,6.991,3.86Zm4.52-6.16c-.249-.12-1.467-.72-1.691-.811s-.391-.12-.56.12-.64.811-.78.969-.289.189-.533.06A6.667,6.667,0,0,1,11,13.1a7.567,7.567,0,0,1-1.38-1.72c-.14-.249-.02-.38.109-.509s.249-.289.365-.429a1.733,1.733,0,0,0,.251-.409.459.459,0,0,0-.02-.431c-.06-.12-.56-1.34-.76-1.84s-.411-.427-.56-.427H8.53a.9.9,0,0,0-.66.311,2.821,2.821,0,0,0-.86,2.067,4.817,4.817,0,0,0,1.011,2.556A10.977,10.977,0,0,0,12.25,16a12.1,12.1,0,0,0,1.409.52,3.425,3.425,0,0,0,1.56.1,2.519,2.519,0,0,0,1.671-1.18,1.955,1.955,0,0,0,.133-1.18c-.064-.1-.213-.151-.464-.269Z" transform="translate(-2.05 -2)"/></g></svg>