<?xml version="1.0" standalone="no"?>
<!DOCTYPE svg PUBLIC "-//W3C//DTD SVG 20010904//EN"
 "http://www.w3.org/TR/2001/REC-SVG-20010904/DTD/svg10.dtd">
<svg version="1.0" xmlns="http://www.w3.org/2000/svg"
 width="500.000000pt" height="500.000000pt" viewBox="0 0 500.000000 500.000000"
 preserveAspectRatio="xMidYMid meet">
<metadata>
Created by potrace 1.14, written by Peter Selinger 2001-2017
</metadata>
<g transform="translate(0.000000,500.000000) scale(0.100000,-0.100000)"
fill="#000000" stroke="none">
<path d="M0 2500 l0 -2500 2500 0 2500 0 0 2500 0 2500 -2500 0 -2500 0 0
-2500z m1782 1623 c36 -32 11 -103 -36 -103 -44 0 -74 46 -55 83 22 41 59 49
91 20z m158 -3 c11 -11 20 -29 20 -40 0 -26 -34 -60 -62 -60 -53 0 -79 74 -36
104 30 21 54 20 78 -4z m148 4 c42 -29 18 -104 -35 -104 -28 0 -63 33 -63 60
0 25 34 60 58 60 10 0 28 -7 40 -16z m162 -4 c11 -11 20 -29 20 -40 0 -26 -34
-60 -62 -60 -53 0 -79 74 -36 104 30 21 54 20 78 -4z m148 4 c42 -29 18 -104
-35 -104 -28 0 -63 33 -63 60 0 25 34 60 58 60 10 0 28 -7 40 -16z m148 8 c51
-33 28 -111 -33 -112 -48 0 -71 64 -36 102 16 18 49 23 69 10z m164 -12 c24
-24 26 -57 3 -82 -32 -35 -103 -10 -103 38 0 29 32 64 60 64 11 0 29 -9 40
-20z m152 3 c37 -34 13 -103 -36 -103 -52 0 -78 52 -45 93 23 31 54 35 81 10z
m158 -3 c55 -55 -24 -135 -82 -83 -25 23 -23 68 4 87 30 21 54 20 78 -4z m152
3 c37 -33 11 -103 -39 -103 -27 0 -63 33 -63 58 0 26 37 62 62 62 12 0 30 -7
40 -17z m158 -3 c55 -55 -24 -135 -82 -83 -25 23 -23 68 4 87 30 21 54 20 78
-4z m-1533 -170 c14 -29 3 -61 -26 -76 -49 -25 -104 24 -82 72 21 47 84 50
108 4z m146 12 c38 -33 6 -94 -49 -94 -42 0 -70 53 -46 88 22 33 60 35 95 6z
m1082 -2 c37 -41 -15 -111 -67 -91 -46 17 -50 88 -6 108 28 12 52 7 73 -17z
m157 -6 c26 -56 -29 -112 -78 -80 -29 20 -38 49 -24 76 23 43 83 45 102 4z
m154 0 c19 -28 11 -59 -21 -80 -21 -13 -28 -14 -52 -2 -15 7 -29 21 -31 31
-14 74 65 112 104 51z m-1236 6 c19 -35 8 -73 -24 -89 -25 -12 -31 -11 -55 6
-32 25 -37 47 -17 78 22 33 80 35 96 5z m156 -5 c34 -52 -29 -115 -81 -81 -28
18 -35 72 -13 94 22 22 76 15 94 -13z m148 9 c31 -30 14 -85 -30 -98 -27 -8
-74 28 -74 56 0 50 69 77 104 42z m156 1 c17 -21 16 -64 -3 -82 -8 -9 -27 -15
-42 -15 -34 0 -57 23 -57 56 0 37 19 56 57 56 18 0 38 -7 45 -15z m154 -1 c44
-43 -12 -122 -66 -93 -28 15 -38 28 -38 53 0 48 70 75 104 40z m154 4 c16 -16
15 -73 0 -86 -27 -21 -55 -22 -78 -4 -25 20 -30 63 -10 87 15 18 71 20 88 3z
m-1076 -169 c16 -22 17 -29 7 -52 -22 -48 -86 -49 -107 -2 -12 27 -3 60 22 78
20 14 59 2 78 -24z m148 11 c11 -11 20 -29 20 -40 0 -26 -34 -60 -62 -60 -50
0 -76 63 -41 102 21 24 58 23 83 -2z m152 3 c37 -33 11 -103 -39 -103 -28 0
-63 33 -63 60 0 26 34 60 62 60 12 0 30 -7 40 -17z m153 3 c41 -30 14 -106
-39 -106 -28 0 -56 29 -56 58 0 52 53 79 95 48z m157 -3 c37 -33 11 -103 -39
-103 -28 0 -63 33 -63 60 0 26 34 60 62 60 12 0 30 -7 40 -17z m144 9 c24 -16
35 -51 23 -74 -22 -42 -59 -50 -91 -21 -49 44 13 132 68 95z m168 -14 c21 -29
20 -57 -1 -80 -34 -38 -103 -11 -103 40 0 57 73 85 104 40z m150 6 c46 -46
-16 -132 -70 -96 -51 33 -28 111 33 112 12 0 29 -7 37 -16z m156 -4 c11 -11
20 -29 20 -40 0 -26 -34 -60 -62 -60 -50 0 -76 63 -41 102 21 24 58 23 83 -2z
m152 3 c37 -33 11 -103 -39 -103 -28 0 -63 33 -63 60 0 26 34 60 62 60 12 0
30 -7 40 -17z m158 -3 c11 -11 20 -29 20 -40 0 -26 -34 -60 -62 -60 -50 0 -76
63 -41 102 21 24 58 23 83 -2z m-1550 -148 c26 -21 30 -66 7 -89 -19 -19 -64
-20 -82 -2 -27 29 -27 57 -1 84 30 30 46 31 76 7z m154 -3 c45 -36 23 -99 -35
-99 -55 0 -79 60 -39 100 25 25 41 25 74 -1z m164 -1 c15 -13 16 -52 2 -79
-15 -28 -74 -26 -94 3 -22 31 -20 45 9 74 26 25 52 26 83 2z m147 -3 c30 -29
31 -45 7 -75 -20 -25 -63 -30 -87 -10 -23 19 -19 76 7 94 31 22 45 20 73 -9z
m163 -3 c6 -9 12 -25 12 -36 -1 -61 -81 -81 -109 -27 -16 29 -14 39 14 67 27
27 59 26 83 -4z m147 3 c30 -29 31 -45 7 -75 -20 -24 -63 -30 -86 -11 -32 27
-23 85 16 101 34 13 37 12 63 -15z m138 14 c28 -15 37 -28 37 -56 0 -48 -64
-71 -102 -36 -26 23 -22 58 8 82 31 25 29 24 57 10z m175 -11 c17 -14 15 -73
-3 -88 -21 -17 -64 -16 -82 3 -23 23 -19 68 7 89 23 18 51 17 78 -4z m146 1
c34 -27 32 -64 -5 -91 -22 -16 -29 -17 -52 -7 -59 27 -42 112 24 118 4 1 18
-9 33 -20z m164 -1 c15 -13 16 -52 2 -79 -15 -28 -74 -26 -94 3 -22 31 -20 45
9 74 26 25 52 26 83 2z m147 -3 c30 -29 31 -45 7 -75 -23 -28 -70 -30 -89 -4
-21 29 -12 76 17 91 34 17 37 17 65 -12z m-1069 -160 c36 -55 -25 -117 -80
-81 -49 31 -24 106 35 106 19 0 34 -8 45 -25z m146 8 c46 -41 -1 -118 -60 -97
-37 13 -50 55 -28 88 19 30 60 35 88 9z m167 -17 c12 -25 11 -31 -6 -55 -11
-14 -30 -27 -42 -29 -50 -8 -82 66 -45 103 26 26 76 16 93 -19z m145 12 c9
-12 16 -30 16 -40 0 -24 -35 -58 -60 -58 -26 0 -60 34 -60 62 0 53 74 79 104
36z m147 12 c41 -23 13 -110 -35 -110 -44 0 -74 46 -55 83 20 38 51 47 90 27z
m-616 -165 c29 -28 31 -42 9 -73 -18 -26 -65 -30 -88 -6 -24 23 -20 70 6 88
31 22 45 20 73 -9z m155 5 c39 -39 14 -100 -41 -100 -29 0 -59 31 -59 61 0 19
45 59 66 59 8 0 23 -9 34 -20z m156 -5 c38 -38 16 -95 -37 -95 -56 0 -82 73
-37 104 31 22 45 20 74 -9z m154 5 c24 -24 26 -57 3 -82 -33 -37 -103 -11
-103 39 0 28 33 63 60 63 11 0 29 -9 40 -20z m148 4 c29 -20 31 -79 3 -94 -28
-15 -67 -12 -81 5 -20 24 -15 67 10 87 27 22 39 22 68 2z m-599 -176 c14 -25
14 -29 -5 -55 -26 -34 -48 -40 -79 -19 -29 19 -34 66 -9 91 25 25 75 16 93
-17z m145 13 c25 -28 17 -72 -16 -90 -25 -14 -29 -14 -55 5 -34 26 -40 48 -19
79 20 31 65 33 90 6z m164 -14 c12 -24 11 -31 -2 -52 -21 -32 -52 -40 -81 -21
-29 19 -34 66 -9 91 26 26 76 16 92 -18z m144 16 c41 -37 3 -111 -50 -98 -50
12 -68 61 -35 97 20 22 61 23 85 1z m149 7 c28 -15 26 -74 -3 -94 -29 -20 -41
-20 -68 2 -25 20 -30 63 -10 87 14 17 53 20 81 5z m-621 -150 c48 -26 26 -110
-30 -110 -36 0 -60 23 -60 60 0 45 48 72 90 50z m158 -6 c44 -31 17 -104 -39
-104 -30 0 -59 31 -59 62 0 23 35 58 58 58 10 0 28 -7 40 -16z m164 -15 c15
-20 17 -30 9 -51 -17 -46 -92 -50 -107 -5 -25 71 53 117 98 56z m148 11 c24
-24 26 -57 3 -82 -33 -37 -103 -11 -103 39 0 28 33 63 60 63 11 0 29 -9 40
-20z m152 3 c22 -20 24 -66 2 -87 -20 -20 -68 -21 -84 -1 -29 35 -1 105 43
105 11 0 29 -7 39 -17z m-605 -170 c20 -30 6 -68 -31 -85 -35 -15 -76 12 -76
50 1 67 71 90 107 35z m309 1 c31 -46 -18 -104 -70 -84 -49 18 -53 83 -7 106
30 15 59 7 77 -22z m138 15 c39 -31 34 -74 -11 -98 -40 -21 -83 9 -83 59 0 17
43 60 60 60 4 0 19 -9 34 -21z m-300 -5 c38 -38 -1 -112 -52 -99 -49 12 -67
62 -35 97 20 22 66 24 87 2z m464 4 c17 -17 15 -73 -3 -88 -21 -17 -64 -16
-82 3 -19 18 -20 61 -3 82 15 18 71 20 88 3z m-628 -148 c26 -14 34 -57 15
-86 -29 -45 -105 -21 -105 34 0 49 46 76 90 52z m158 -6 c44 -31 17 -104 -39
-104 -30 0 -59 31 -59 62 0 23 35 58 58 58 10 0 28 -7 40 -16z m148 8 c23 -15
34 -50 25 -75 -23 -59 -111 -42 -111 21 0 46 51 78 86 54z m164 -12 c24 -24
25 -48 4 -78 -29 -42 -104 -18 -104 35 0 28 33 63 60 63 11 0 29 -9 40 -20z
m152 3 c22 -20 24 -66 2 -87 -45 -45 -122 11 -93 67 22 41 59 49 91 20z m-446
-179 c16 -64 -49 -101 -98 -57 -33 29 -16 80 32 95 24 8 60 -13 66 -38z m152
9 c14 -22 14 -28 1 -51 -18 -32 -50 -44 -80 -28 -34 17 -35 85 -1 102 31 15
60 7 80 -23z m127 25 c68 -31 26 -132 -45 -106 -48 18 -54 65 -14 97 31 25 27
24 59 9z m175 -13 c6 -8 10 -29 8 -47 -6 -58 -78 -71 -105 -18 -30 59 55 115
97 65z m-613 -11 c15 -23 15 -29 2 -52 -42 -74 -140 -18 -99 58 17 31 75 28
97 -6z m-7 -144 c11 -11 20 -29 20 -40 0 -26 -34 -60 -62 -60 -50 0 -76 63
-41 102 21 24 58 23 83 -2z m152 3 c38 -35 9 -103 -44 -103 -24 0 -58 35 -58
60 0 26 34 60 62 60 12 0 30 -7 40 -17z m158 -5 c11 -12 20 -26 20 -31 0 -13
-22 -51 -34 -59 -34 -23 -86 8 -86 50 0 57 61 81 100 40z m152 5 c24 -21 23
-58 -2 -83 -55 -55 -135 24 -83 82 20 22 61 23 85 1z m150 0 c37 -33 11 -103
-38 -103 -52 0 -78 76 -36 108 22 17 52 15 74 -5z m-617 -158 c29 -28 31 -42
9 -73 -17 -25 -71 -31 -92 -10 -21 21 -15 75 10 92 31 22 45 20 73 -9z m163
-3 c29 -38 3 -92 -45 -92 -60 0 -83 63 -36 99 28 23 59 20 81 -7z m147 3 c29
-28 31 -42 9 -73 -18 -26 -75 -30 -94 -7 -20 24 -15 67 10 87 30 24 46 23 75
-7z m138 14 c27 -15 37 -28 37 -53 0 -48 -64 -73 -102 -39 -37 33 -15 88 40
102 2 1 13 -4 25 -10z m165 -5 c25 -17 31 -71 10 -92 -17 -17 -73 -15 -88 3
-20 24 -15 67 10 87 27 22 39 22 68 2z m-599 -176 c14 -25 14 -29 -5 -55 -12
-15 -31 -29 -43 -31 -50 -8 -82 66 -45 103 25 25 75 16 93 -17z m143 15 c27
-24 23 -69 -8 -89 -55 -37 -117 25 -80 80 19 30 60 35 88 9z m144 9 c6 -4 17
-18 24 -31 10 -20 9 -27 -7 -50 -11 -14 -30 -27 -42 -29 -49 -8 -82 66 -45
102 16 17 51 21 70 8z m166 -9 c10 -9 18 -27 18 -40 0 -28 -33 -63 -60 -63
-26 0 -60 34 -60 62 0 50 63 76 102 41z m152 1 c34 -34 8 -104 -39 -104 -49 0
-78 79 -39 107 24 18 59 16 78 -3z m-619 -159 c29 -28 31 -42 9 -73 -18 -26
-65 -30 -88 -6 -24 23 -20 70 6 88 31 22 45 20 73 -9z m153 9 c26 -18 30 -65
6 -88 -23 -24 -70 -20 -88 6 -21 30 -20 54 4 78 24 24 48 25 78 4z m157 -9
c30 -29 31 -49 5 -75 -20 -20 -56 -26 -76 -12 -35 23 -34 80 3 101 28 16 42
13 68 -14z m155 5 c24 -24 26 -57 3 -82 -33 -37 -103 -11 -103 39 0 28 33 63
60 63 11 0 29 -9 40 -20z m148 4 c29 -20 31 -79 3 -94 -28 -15 -67 -12 -81 5
-20 24 -15 67 10 87 27 22 39 22 68 2z m-602 -169 c21 -32 7 -69 -30 -87 -55
-24 -103 53 -60 96 25 25 71 20 90 -9z m146 8 c24 -21 23 -58 -2 -83 -25 -25
-41 -25 -74 1 -30 23 -33 45 -10 77 18 26 60 29 86 5z m164 -8 c31 -47 -21
-110 -72 -86 -43 19 -49 78 -10 103 24 16 66 8 82 -17z m146 8 c21 -19 23 -52
4 -78 -18 -25 -74 -25 -92 0 -44 59 33 128 88 78z m149 7 c28 -15 26 -74 -3
-94 -29 -20 -41 -20 -68 2 -25 20 -30 63 -10 87 14 17 53 20 81 5z m-618 -152
c28 -22 32 -63 8 -87 -39 -39 -101 -16 -101 37 0 50 54 79 93 50z m155 -4 c44
-31 17 -104 -39 -104 -30 0 -59 31 -59 62 0 23 35 58 58 58 10 0 28 -7 40 -16z
m148 8 c24 -16 35 -51 23 -74 -22 -42 -59 -50 -91 -21 -49 44 13 132 68 95z
m164 -12 c55 -55 -24 -136 -82 -83 -25 23 -23 68 4 87 30 21 54 20 78 -4z
m152 3 c11 -9 18 -30 18 -50 0 -26 -6 -36 -25 -45 -41 -19 -79 0 -83 41 -6 59
48 92 90 54z m-294 -176 c24 -50 -25 -99 -76 -75 -23 11 -27 20 -27 53 0 32 5
42 24 51 31 16 63 4 79 -29z m158 -2 c13 -53 -34 -97 -79 -74 -45 24 -50 67
-12 98 22 16 31 18 56 9 17 -6 31 -19 35 -33z m-470 10 c19 -29 11 -60 -21
-81 -21 -13 -28 -14 -52 -2 -35 17 -45 74 -17 95 29 21 72 16 90 -12z m148 9
c31 -30 14 -85 -30 -98 -27 -8 -74 28 -74 56 0 50 69 77 104 42z m465 2 c7 -8
11 -30 9 -48 -7 -74 -108 -69 -108 5 0 18 5 38 12 45 17 17 73 15 87 -2z
m-619 -156 c11 -11 20 -29 20 -40 0 -26 -34 -60 -62 -60 -50 0 -76 63 -41 102
21 24 58 23 83 -2z m152 3 c37 -33 11 -103 -39 -103 -28 0 -63 33 -63 60 0 26
34 60 62 60 12 0 30 -7 40 -17z m144 9 c24 -16 35 -51 23 -74 -22 -42 -59 -50
-91 -21 -49 44 13 132 68 95z m164 -12 c55 -55 -24 -136 -82 -83 -22 20 -23
51 -2 81 19 28 57 29 84 2z m152 3 c22 -20 23 -61 1 -85 -41 -46 -114 3 -91
61 16 44 56 55 90 24z m-1073 -158 c17 -16 18 -60 1 -80 -19 -23 -76 -19 -94
7 -22 31 -20 45 9 74 27 26 55 26 84 -1z m145 4 c45 -36 23 -99 -35 -99 -79 0
-77 109 2 119 4 1 18 -8 33 -20z m325 -21 c13 -23 13 -29 -2 -52 -13 -19 -26
-26 -51 -26 -42 0 -58 19 -54 62 6 60 76 71 107 16z m149 14 c30 -38 3 -92
-45 -92 -54 0 -83 60 -45 92 33 30 65 30 90 0z m161 -14 c13 -23 13 -29 -3
-52 -36 -56 -129 -14 -107 48 18 49 83 52 110 4z m124 31 c28 -15 37 -28 37
-56 0 -48 -64 -71 -102 -36 -26 23 -22 58 8 82 31 25 29 24 57 10z m321 -10
c45 -36 23 -99 -35 -99 -79 0 -77 109 2 119 4 1 18 -8 33 -20z m164 -1 c15
-13 16 -52 2 -79 -15 -28 -74 -26 -94 3 -22 31 -20 45 9 74 26 25 52 26 83 2z
m147 -3 c29 -28 31 -42 9 -73 -21 -30 -79 -31 -94 -2 -18 33 -8 73 20 87 34
17 37 17 65 -12z m-1227 3 c16 -16 15 -60 -1 -82 -20 -27 -77 -18 -96 15 -13
24 -13 29 2 53 13 19 26 26 50 26 18 0 38 -5 45 -12z m770 0 c7 -7 12 -26 12
-43 0 -39 -16 -55 -56 -55 -36 0 -56 19 -56 55 0 14 5 32 12 40 15 18 71 20
88 3z m-1084 -154 c37 -36 4 -110 -45 -102 -12 2 -31 15 -42 29 -16 23 -17 30
-7 50 7 13 18 27 24 31 19 13 54 9 70 -8z m162 -10 c37 -55 -25 -117 -80 -80
-49 31 -24 106 35 106 20 0 34 -8 45 -26z m146 9 c27 -24 23 -69 -8 -89 -55
-37 -117 25 -80 80 19 30 60 35 88 9z m166 -15 c27 -58 -29 -109 -83 -74 -50
33 -21 110 39 104 22 -2 35 -11 44 -30z m144 15 c27 -24 23 -69 -8 -89 -55
-37 -117 25 -80 80 19 30 60 35 88 9z m144 9 c6 -4 16 -17 23 -29 24 -46 -35
-103 -78 -76 -54 34 -37 113 24 113 11 0 25 -4 31 -8z m166 -9 c10 -9 18 -27
18 -40 0 -28 -33 -63 -60 -63 -26 0 -60 34 -60 62 0 50 63 76 102 41z m152 1
c34 -34 8 -104 -39 -104 -49 0 -78 79 -39 107 24 18 59 16 78 -3z m158 -1 c24
-21 23 -58 -2 -83 -55 -55 -135 24 -83 82 20 22 61 23 85 1z m152 1 c34 -33 8
-104 -37 -104 -26 0 -67 38 -67 62 0 46 71 75 104 42z m162 -10 c37 -55 -25
-117 -80 -80 -30 19 -35 65 -10 90 25 25 71 20 90 -10z m-1558 -140 c24 -16
29 -53 12 -85 -12 -22 -71 -27 -88 -6 -24 30 -23 56 2 82 29 29 43 31 74 9z
m147 4 c52 -24 35 -108 -22 -108 -57 0 -83 60 -43 100 23 23 30 24 65 8z m163
-4 c26 -18 30 -65 6 -88 -23 -24 -70 -20 -88 6 -23 32 -20 54 10 77 32 25 43
26 72 5z m157 -9 c29 -28 31 -42 9 -73 -18 -26 -65 -30 -88 -6 -24 23 -20 70
6 88 31 22 45 20 73 -9z m155 5 c39 -39 14 -100 -41 -100 -57 0 -78 83 -27
108 33 16 46 14 68 -8z m156 -5 c38 -38 16 -95 -37 -95 -56 0 -82 73 -37 104
31 22 45 20 74 -9z m152 5 c40 -37 17 -100 -36 -100 -56 0 -81 61 -42 100 26
26 50 25 78 0z m150 4 c29 -20 31 -79 3 -94 -28 -15 -67 -12 -81 5 -20 24 -15
67 10 87 27 22 39 22 68 2z m145 5 c27 -15 37 -28 37 -53 0 -28 -29 -56 -58
-56 -56 0 -81 61 -42 100 23 23 33 24 63 9z m165 -5 c26 -18 30 -65 6 -88 -23
-24 -70 -20 -88 6 -22 31 -20 45 9 73 28 29 42 31 73 9z m157 -9 c29 -28 31
-42 9 -73 -18 -26 -65 -30 -88 -6 -24 23 -20 70 6 88 31 22 45 20 73 -9z"/>
</g>
</svg>
